<?xml version="1.0" standalone="no"?><!DOCTYPE svg PUBLIC "-//W3C//DTD SVG 1.1//EN" "http://www.w3.org/Graphics/SVG/1.1/DTD/svg11.dtd"><svg t="1540350586092" class="icon" style="" viewBox="0 0 1024 1024" version="1.1" xmlns="http://www.w3.org/2000/svg" p-id="507" xmlns:xlink="http://www.w3.org/1999/xlink" width="200" height="200"><defs><style type="text/css"></style></defs><path d="M790.096 187.08H233.912c-50.984 0-92.696 41.712-92.696 92.696S182.928 372.48 233.912 372.48h556.184c50.984 0 92.696-41.712 92.696-92.696s-41.712-92.704-92.696-92.704z m-0.128 150.736H234.032a58.032 58.032 0 0 1 0-116.064h555.936a58.032 58.032 0 0 1 0 116.064zM790.096 418.84H233.912c-50.984 0-92.696 41.712-92.696 92.696 0 50.992 41.712 92.688 92.696 92.688h556.184c50.984 0 92.696-41.704 92.696-92.688 0-50.976-41.712-92.696-92.696-92.696z m-0.128 150.736H234.032a58.032 58.032 0 0 1 0-116.064h555.936a58.032 58.032 0 0 1 0 116.064zM790.096 650.608H233.912c-50.984 0-92.696 41.712-92.696 92.696S182.928 836 233.912 836h556.184c50.984 0 92.696-41.712 92.696-92.696s-41.712-92.696-92.696-92.696z m-0.128 150.728H234.032a58.032 58.032 0 0 1 0-116.072h555.936a58.04 58.04 0 0 1 0 116.072z" p-id="508" fill="#13227a"></path></svg>