<?xml version="1.0" standalone="no"?><!DOCTYPE svg PUBLIC "-//W3C//DTD SVG 1.1//EN" "http://www.w3.org/Graphics/SVG/1.1/DTD/svg11.dtd"><svg t="1540305982521" class="icon" style="" viewBox="0 0 1024 1024" version="1.1" xmlns="http://www.w3.org/2000/svg" p-id="3284" xmlns:xlink="http://www.w3.org/1999/xlink" width="200" height="200"><defs><style type="text/css"></style></defs><path d="M815 192.7H207.3c-8.8 0-16 7.2-16 16v32c0 8.8 7.2 16 16 16H815c8.8 0 16-7.2 16-16v-32c0-8.9-7.1-16-16-16zM815 480.8H463.8c-8.8 0-16 7.2-16 16v32c0 8.8 7.2 16 16 16H815c8.8 0 16-7.2 16-16v-32c0-8.9-7.1-16-16-16zM815 767.9H207.3c-8.8 0-16 7.2-16 16v32c0 8.8 7.2 16 16 16H815c8.8 0 16-7.2 16-16v-32c0-8.8-7.1-16-16-16zM303.8 618.1c14.4 12.2 36.5 2 36.5-16.9V421.1c0-18.9-22.2-29.1-36.5-16.8l-101.1 86.4c-11.5 11.5-11.5 30.2 0.1 41.7l101 85.7z" p-id="3285" fill="#13227a"></path></svg>