<?xml version="1.0" standalone="no"?><!DOCTYPE svg PUBLIC "-//W3C//DTD SVG 1.1//EN" "http://www.w3.org/Graphics/SVG/1.1/DTD/svg11.dtd"><svg t="1540361116263" class="icon" style="" viewBox="0 0 1024 1024" version="1.1" xmlns="http://www.w3.org/2000/svg" p-id="1867" xmlns:xlink="http://www.w3.org/1999/xlink" width="200" height="200"><defs><style type="text/css"></style></defs><path d="M723.781818 649.309091c-32.581818 0-62.836364-11.636364-86.109091-34.909091l-16.290909-13.963636c-25.6-23.272727-37.236364-53.527273-39.563636-86.109091 0-32.581818 11.636364-62.836364 34.909091-86.109091l18.618182-18.618182c23.272727-23.272727 53.527273-34.909091 86.109091-34.909091 62.836364 0 116.363636 46.545455 123.345455 107.054545 2.327273 20.945455 2.327273 41.890909 0 62.836364C840.145455 602.763636 786.618182 649.309091 723.781818 649.309091zM723.781818 432.872727c-11.636364 0-27.927273 2.327273-44.218182 18.618182l-18.618182 18.618182c-11.636364 11.636364-18.618182 25.6-18.618182 41.890909 0 16.290909 6.981818 32.581818 20.945455 46.545455l16.290909 13.963636c16.290909 13.963636 32.581818 18.618182 44.218182 18.618182 27.927273 0 58.181818-18.618182 62.836364-53.527273 2.327273-16.290909 2.327273-34.909091 0-51.2C781.963636 451.490909 751.709091 432.872727 723.781818 432.872727zM498.036364 430.545455c-32.581818 0-62.836364-11.636364-86.109091-34.909091l-18.618182-18.618182c-34.909091-32.581818-44.218182-81.454545-27.927273-125.672727C379.345455 207.127273 418.909091 179.2 465.454545 174.545455c20.945455-2.327273 41.890909-2.327273 62.836364 0 46.545455 4.654545 86.109091 32.581818 102.4 76.8 16.290909 44.218182 4.654545 93.090909-27.927273 125.672727L584.145455 395.636364C560.872727 416.581818 530.618182 430.545455 498.036364 430.545455zM498.036364 230.4c-9.309091 0-16.290909 0-25.6 0-23.272727 2.327273-41.890909 16.290909-51.2 39.563636-6.981818 18.618182-6.981818 44.218182 13.963636 65.163636l18.618182 18.618182c23.272727 23.272727 65.163636 23.272727 88.436364 0l18.618182-18.618182c20.945455-20.945455 20.945455-46.545455 13.963636-65.163636-9.309091-23.272727-27.927273-37.236364-51.2-39.563636C514.327273 230.4 507.345455 230.4 498.036364 230.4zM269.963636 649.309091c-65.163636 0-116.363636-46.545455-123.345455-107.054545-2.327273-20.945455-2.327273-41.890909 0-62.836364C153.6 418.909091 207.127273 372.363636 269.963636 372.363636c32.581818 0 62.836364 11.636364 86.109091 34.909091l16.290909 16.290909c25.6 23.272727 37.236364 53.527273 39.563636 86.109091 0 32.581818-11.636364 62.836364-34.909091 86.109091l-20.945455 18.618182C335.127273 637.672727 302.545455 649.309091 269.963636 649.309091zM269.963636 430.545455c-27.927273 0-58.181818 18.618182-62.836364 53.527273-2.327273 16.290909-2.327273 34.909091 0 51.2 2.327273 34.909091 34.909091 53.527273 62.836364 53.527273 11.636364 0 27.927273-2.327273 44.218182-18.618182l20.945455-18.618182c11.636364-11.636364 18.618182-25.6 18.618182-41.890909 0-16.290909-6.981818-32.581818-20.945455-46.545455l-16.290909-16.290909C300.218182 435.2 281.6 430.545455 269.963636 430.545455zM495.709091 851.781818c-9.309091 0-20.945455 0-30.254545-2.327273-46.545455-4.654545-86.109091-32.581818-104.727273-76.8-16.290909-44.218182-4.654545-93.090909 27.927273-125.672727l20.945455-18.618182c23.272727-23.272727 53.527273-34.909091 86.109091-34.909091 32.581818 0 62.836364 11.636364 86.109091 34.909091l20.945455 18.618182c34.909091 32.581818 44.218182 81.454545 27.927273 125.672727-16.290909 44.218182-55.854545 74.472727-102.4 76.8C518.981818 851.781818 507.345455 851.781818 495.709091 851.781818zM498.036364 651.636364c-16.290909 0-32.581818 6.981818-44.218182 18.618182l-20.945455 18.618182c-18.618182 16.290909-23.272727 41.890909-13.963636 65.163636 9.309091 23.272727 27.927273 37.236364 51.2 39.563636 18.618182 2.327273 34.909091 2.327273 53.527273 0 23.272727-2.327273 44.218182-16.290909 51.2-39.563636 9.309091-23.272727 2.327273-46.545455-13.963636-62.836364l-20.945455-18.618182C530.618182 658.618182 514.327273 651.636364 498.036364 651.636364zM1024 963.490909c0-16.290909-13.963636-30.254545-30.254545-30.254545-39.563636 0-90.763636-6.981818-109.381818-34.909091-20.945455-32.581818 4.654545-88.436364 13.963636-107.054545 48.872727-79.127273 79.127273-141.963636 90.763636-221.090909 2.327273-23.272727 4.654545-41.890909 4.654545-58.181818 0-18.618182-2.327273-37.236364-4.654545-60.509091C961.163636 232.727273 784.290909 62.836364 558.545455 34.909091c-46.545455-4.654545-76.8-4.654545-123.345455 0C209.454545 62.836364 32.581818 232.727273 4.654545 451.490909 2.327273 474.763636 0 493.381818 0 512c0 18.618182 2.327273 37.236364 4.654545 58.181818C32.581818 791.272727 209.454545 961.163636 435.2 989.090909c46.545455 4.654545 76.8 4.654545 123.345455 0 55.854545-6.981818 111.709091-23.272727 160.581818-48.872727 13.963636-6.981818 20.945455-25.6 13.963636-39.563636-6.981818-13.963636-25.6-20.945455-39.563636-13.963636-44.218182 20.945455-93.090909 34.909091-141.963636 41.890909-41.890909 4.654545-67.490909 4.654545-109.381818 0-197.818182-23.272727-353.745455-174.545455-379.345455-367.709091-2.327273-18.618182-4.654545-37.236364-4.654545-51.2 0-16.290909 2.327273-32.581818 4.654545-53.527273C88.436364 267.636364 244.363636 116.363636 442.181818 93.090909c41.890909-4.654545 67.490909-4.654545 109.381818 0 197.818182 23.272727 353.745455 174.545455 377.018182 365.381818 2.327273 20.945455 4.654545 37.236364 4.654545 53.527273 0 16.290909 0 32.581818-4.654545 51.2-9.309091 69.818182-37.236364 125.672727-81.454545 200.145455C844.8 768 791.272727 861.090909 833.163636 928.581818c25.6 41.890909 79.127273 65.163636 160.581818 65.163636C1010.036364 993.745455 1024 979.781818 1024 963.490909z" p-id="1868" fill="#ffffff"></path></svg>