<?xml version="1.0" standalone="no"?><!DOCTYPE svg PUBLIC "-//W3C//DTD SVG 1.1//EN" "http://www.w3.org/Graphics/SVG/1.1/DTD/svg11.dtd"><svg t="1540057927046" class="icon" style="" viewBox="0 0 1024 1024" version="1.1" xmlns="http://www.w3.org/2000/svg" p-id="1470" xmlns:xlink="http://www.w3.org/1999/xlink" width="200" height="200"><defs><style type="text/css"></style></defs><path d="M819.008 792.992q-24.992-60-71.008-106.016t-106.016-71.008q-20-8.992-42.016-15.008 60.992-20 107.008-66.016 80.992-80.992 80.992-195.008t-80.992-194.496-195.008-80.512-194.496 80.512-80.512 194.496 80 195.008q46.016 46.016 107.008 66.016-23.008 6.016-42.016 15.008-60 24.992-106.016 71.008t-71.008 106.016q-26.016 62.016-26.016 130.016 0 15.008 10.496 25.504t25.504 10.496 25.504-10.496 10.496-25.504q0-108 76.512-184.992t184.992-76.992 184.992 76.512 76.512 185.504q0 15.008 10.496 25.504t25.504 10.496 25.504-10.496 10.496-25.504q-0.992-68-27.008-130.016zM308.992 340q0-84 59.488-143.488t143.488-59.488 143.488 59.488 59.488 143.488-59.488 144T511.968 544t-143.488-60-59.488-144z" p-id="1471"></path></svg>