<?xml version="1.0" standalone="no"?><!DOCTYPE svg PUBLIC "-//W3C//DTD SVG 1.1//EN" "http://www.w3.org/Graphics/SVG/1.1/DTD/svg11.dtd"><svg t="1540350886984" class="icon" style="" viewBox="0 0 1102 1024" version="1.1" xmlns="http://www.w3.org/2000/svg" p-id="3354" xmlns:xlink="http://www.w3.org/1999/xlink" width="215.234375" height="200"><defs><style type="text/css"></style></defs><path d="M1093.286827 915.690341c-45.804966-115.603009-115.500765-142.492977-184.003728-154.319111-61.891233-10.735539-126.849764-33.706184-159.05638-50.883046l-18.3697-9.781269c-0.374892-20.857618-0.95427-52.689343-1.226919-69.048259 65.844638-71.672502 107.355388-175.926513 107.355388-271.421687C837.951408 141.572788 725.074885 0.272649 550.375291 0.272649S262.765094 141.572788 262.765094 360.23697c0 92.939093 39.227318 194.262131 102.00466 265.661985l4.703188 11.757971c-0.408973 17.313186-1.022432 44.782533-1.465486 63.458963l-18.267457 9.576782c-32.649671 17.142781-97.608201 40.045264-158.613326 50.610397-68.605205 11.826133-138.335086 38.750183-183.731079 154.557678L0 934.843906l13.155295 15.540971c14.654863 17.245024 96.585768 73.615123 537.01551 73.615123 433.511283 0 519.90681-55.279505 536.061239-72.217799l15.063835-15.779538L1093.286827 915.690341zM550.375291 68.4348c161.782866 0 219.413965 150.740598 219.413965 291.80217 0 88.133662-45.668641 189.115889-111.342874 246.201691-51.530586 35.580643-85.270851 43.760101-104.731146 43.760101-26.037942 0-48.906344-5.07808-72.388205-16.597484-85.986554-45.668641-150.433868-168.633162-150.433868-273.364308C330.927245 219.175398 388.592425 68.4348 550.375291 68.4348zM550.170805 955.837849c-305.230114 0-424.24123-27.503428-466.808494-42.77175 33.229049-64.276909 75.455502-76.920988 119.386008-84.521068 71.536178-12.37143 141.30014-37.761832 178.721161-57.460694l53.745856-28.219131 1.329162-55.824802c34.694535 20.959862 73.137988 33.229049 113.830793 33.229049 40.420156 0 78.556879-12.064701 113.046928-32.717833l0.988351 54.529721 53.779937 28.594022c35.819211 19.085402 107.219064 45.361912 179.436863 57.869667l0 0c43.964588 7.60008 86.19104 20.244159 119.658657 84.418824C974.548359 928.300339 855.400919 955.837849 550.170805 955.837849z" p-id="3355"></path></svg>